<svg width="187" height="100" viewBox="0 0 187 100" fill="none" xmlns="http://www.w3.org/2000/svg">
<path d="M113.479 33.9121C113.479 21.1932 103.62 11.5744 92.2979 11.5742C80.9757 11.5742 71.1172 21.1931 71.1172 33.9121C71.1172 46.6311 80.9757 56.25 92.2979 56.25V67.8242L91.4521 67.8135C74.0339 67.3566 59.9949 52.8209 59.5537 34.7871L59.543 33.9121C59.543 15.183 74.208 0 92.2979 0L93.1426 0.0107422C110.842 0.474761 125.052 15.4755 125.052 33.9121L125.042 34.7871C124.594 53.1117 110.105 67.8241 92.2979 67.8242V56.25C103.62 56.2499 113.478 46.631 113.479 33.9121Z" fill="white"/>
<path d="M103.188 23.354L119.169 7.40736L120.417 8.65761L104.436 24.6043L103.188 23.354Z" fill="#144336"/>
<path d="M103.062 18.75H130.839V25.2315H103.062V18.75Z" fill="#144336"/>
<path d="M107.279 22.0241L118.236 8.88079L123.937 18.1118L107.279 22.0241Z" fill="#144336"/>
<path d="M90.5615 30.0921C90.5615 27.4073 92.7379 25.231 95.4226 25.231H119.497C122.181 25.231 124.358 27.4074 124.358 30.0921V38.6569C124.358 41.3416 122.181 43.518 119.497 43.518H95.4226C92.7379 43.518 90.5615 41.3416 90.5615 38.6569V30.0921Z" fill="white"/>
<path d="M98.8948 30.5548C98.8948 30.1713 99.2057 29.8604 99.5892 29.8604H118.802C119.058 29.8604 119.265 30.0676 119.265 30.3233V32.4066C119.265 32.6623 119.058 32.8696 118.802 32.8696H99.5892C99.2057 32.8696 98.8948 32.5587 98.8948 32.1752V30.5548Z" fill="#144336"/>
<path d="M98.8948 37.2682C98.8948 36.8846 99.2057 36.5737 99.5892 36.5737H118.802C119.058 36.5737 119.265 36.781 119.265 37.0367V39.12C119.265 39.3757 119.058 39.583 118.802 39.583H99.5892C99.2057 39.583 98.8948 39.2721 98.8948 38.8885V37.2682Z" fill="#144336"/>
<path d="M69.7281 31.7124H90.5615V37.268H69.7281V31.7124Z" fill="white"/>
<path d="M96.0013 25.231L95.3728 32.5805L83.6171 31.5967L85.8161 31.3652L86.5106 31.1337L87.5523 30.3235L89.1726 28.5874L90.9087 26.9671L92.2976 26.1569L93.8023 25.4624L94.7282 25.231H96.0013Z" fill="white"/>
<path d="M92.2977 36.2266L95.3069 43.5182L92.6449 42.708L91.256 42.0136L90.0986 41.0877L88.7097 39.6988L87.4365 38.4256L86.1634 37.6155L84.1958 37.2682L92.2977 36.2266Z" fill="white"/>
<path d="M92.2977 36.2266L95.3069 43.5182L92.6449 42.708L91.256 42.0136L90.0986 41.0877L88.7097 39.6988L87.4365 38.4256L86.1634 37.6155L84.1958 37.2682L92.2977 36.2266Z" fill="white"/>
<path d="M181.507 79.2632H186.467L179.027 92.2836V98.9912H174.658V92.3118L167.218 79.2632H172.178L176.857 87.9153L181.507 79.2632Z" fill="white"/>
<path d="M151.557 79.2632H165.903V82.8988H155.926V87.2671H163.394V90.7336H155.926V98.9912H151.557V79.2632Z" fill="white"/>
<path d="M143.714 79.2632H148.082V98.9912H143.714V79.2632Z" fill="white"/>
<path d="M124.538 79.2632H141.11V82.8988H134.994V98.9912H130.654V82.8988H124.538V79.2632Z" fill="white"/>
<path d="M122.5 82.8988H112.523V87.2671H119.992V90.7336H112.523V95.3556H122.5V98.9912H108.155V79.2632H122.5V82.8988Z" fill="white"/>
<path d="M87.2027 98.9912H82.8344V79.2632H87.9354L93.7693 93.3264L99.6313 79.2632H104.704V98.9912H100.336V86.9853L95.5166 98.9912H92.0219L87.2027 86.9853V98.9912Z" fill="white"/>
<path d="M75.4219 85.5198C75.4219 84.7119 75.1776 84.0731 74.6891 83.6033C74.2194 83.1336 73.4773 82.8988 72.4627 82.8988H68.4325V88.169H72.4627C73.1391 88.169 73.6933 88.0656 74.1255 87.8589C74.5576 87.6523 74.877 87.3517 75.0837 86.9571C75.3092 86.5437 75.4219 86.0646 75.4219 85.5198ZM72.6881 79.2632C74.2852 79.2632 75.6098 79.5544 76.6619 80.1369C77.7329 80.7005 78.5314 81.4614 79.0575 82.4197C79.5836 83.3591 79.8466 84.3925 79.8466 85.5198C79.8466 86.2901 79.7057 87.051 79.4238 87.8026C79.1608 88.5353 78.7381 89.2117 78.1556 89.8317C77.592 90.433 76.8498 90.9121 75.9292 91.2691C75.0273 91.6261 73.947 91.8045 72.6881 91.8045H68.4325V98.9912H64.0642V79.2632H72.6881ZM74.971 90.3109L80.2411 98.9912H75.3937L70.4053 90.3109H74.971Z" fill="white"/>
<path d="M43.9434 79.2632H48.3117V91.5791C48.3117 92.4058 48.4808 93.1197 48.819 93.721C49.1572 94.3034 49.6175 94.7449 50.1999 95.0456C50.8012 95.3274 51.4964 95.4683 52.2855 95.4683C53.0934 95.4683 53.798 95.3274 54.3992 95.0456C55.0192 94.7449 55.4983 94.3034 55.8365 93.721C56.1747 93.1197 56.3438 92.4058 56.3438 91.5791V79.2632H60.7121V91.2409C60.7121 92.5749 60.4773 93.7398 60.0076 94.7356C59.5566 95.7313 58.9272 96.558 58.1193 97.2156C57.3302 97.8732 56.4284 98.3711 55.4138 98.7093C54.3992 99.0287 53.3376 99.1884 52.2291 99.1884C50.7448 99.1884 49.3732 98.8972 48.1144 98.3148C46.8556 97.7323 45.841 96.8587 45.0707 95.6938C44.3191 94.5101 43.9434 93.0258 43.9434 91.2409V79.2632Z" fill="white"/>
<path d="M31.3648 99.1885C29.9557 99.1885 28.6405 98.9442 27.4192 98.4557C26.198 97.9672 25.127 97.2814 24.2064 96.3984C23.2858 95.4965 22.5624 94.435 22.0363 93.2137C21.5102 91.9737 21.2472 90.6115 21.2472 89.1272C21.2472 87.6429 21.5102 86.2901 22.0363 85.0689C22.5624 83.8288 23.2858 82.7673 24.2064 81.8842C25.127 80.9823 26.198 80.2872 27.4192 79.7987C28.6405 79.3102 29.9557 79.0659 31.3648 79.0659C32.7552 79.0659 34.061 79.3102 35.2822 79.7987C36.5223 80.2872 37.5932 80.9823 38.4951 81.8842C39.4157 82.7673 40.1391 83.8288 40.6652 85.0689C41.1912 86.2901 41.4543 87.6429 41.4543 89.1272C41.4543 90.6115 41.1912 91.9737 40.6652 93.2137C40.1391 94.435 39.4157 95.4965 38.4951 96.3984C37.5744 97.2814 36.5035 97.9672 35.2822 98.4557C34.061 98.9442 32.7552 99.1885 31.3648 99.1885ZM31.3648 95.4683C32.4734 95.4683 33.4504 95.2053 34.2958 94.6792C35.1601 94.1343 35.8271 93.3828 36.2968 92.4246C36.7853 91.4664 37.0296 90.3672 37.0296 89.1272C37.0296 87.8684 36.7853 86.7692 36.2968 85.8298C35.8271 84.8716 35.1601 84.1294 34.2958 83.6034C33.4504 83.0585 32.4734 82.786 31.3648 82.786C30.2187 82.786 29.2229 83.0585 28.3774 83.6034C27.532 84.1294 26.865 84.8716 26.3765 85.8298C25.9068 86.7692 25.6719 87.8684 25.6719 89.1272C25.6719 90.3672 25.9068 91.4664 26.3765 92.4246C26.865 93.3828 27.532 94.1343 28.3774 94.6792C29.2229 95.2053 30.2187 95.4683 31.3648 95.4683Z" fill="white"/>
<path d="M15.0496 85.6325C14.5048 84.6367 13.8096 83.9134 12.9641 83.4624C12.1374 82.9927 11.2074 82.7579 10.174 82.7579C9.08426 82.7579 8.09786 83.0397 7.2148 83.6034C6.35053 84.1482 5.66475 84.8998 5.15746 85.858C4.66895 86.8162 4.4247 87.9059 4.4247 89.1272C4.4247 90.4048 4.66895 91.5227 5.15746 92.4809C5.64596 93.4204 6.33174 94.1625 7.2148 94.7074C8.09786 95.2335 9.13124 95.4965 10.3149 95.4965C11.0477 95.4965 11.7241 95.3744 12.3441 95.1301C12.9641 94.8671 13.5184 94.5101 14.0069 94.0592C14.4954 93.6083 14.9087 93.0916 15.2469 92.5091V91.2691H10.174V87.8308H19.3334V93.2982C18.8825 94.3316 18.2249 95.2992 17.3606 96.2011C16.4963 97.0841 15.4536 97.8075 14.2323 98.3712C13.0111 98.916 11.6207 99.1885 10.0613 99.1885C8.59576 99.1885 7.25238 98.9442 6.03112 98.4557C4.80987 97.9672 3.74832 97.272 2.84647 96.3702C1.94461 95.4683 1.24004 94.4068 0.732753 93.1855C0.244251 91.9455 0 90.5927 0 89.1272C0 87.6617 0.244251 86.3183 0.732753 85.097C1.24004 83.857 1.93522 82.786 2.81828 81.8842C3.72013 80.9823 4.78169 80.2872 6.00294 79.7987C7.2242 79.3102 8.56758 79.0659 10.0331 79.0659C11.4046 79.0659 12.6917 79.282 13.8941 79.7141C15.1154 80.1463 16.1769 80.7757 17.0788 81.6024C17.9806 82.4103 18.6476 83.3967 19.0798 84.5616L15.0496 85.6325Z" fill="white"/>
</svg>
